<mxfile host="app.diagrams.net" modified="2023-09-06T18:57:38.987Z" agent="Mozilla/5.0 (X11; Linux x86_64) AppleWebKit/537.36 (KHTML, like Gecko) Chrome/115.0.0.0 Safari/537.36" etag="auqSqwYodr-q2uTz3b3k" version="21.3.6" type="github">
  <diagram name="第 1 页" id="Sx_QgxzTAHvO5nQUL6J-">
    <mxGraphModel dx="1004" dy="584" grid="1" gridSize="10" guides="1" tooltips="1" connect="1" arrows="1" fold="1" page="1" pageScale="1" pageWidth="827" pageHeight="1169" math="0" shadow="0">
      <root>
        <mxCell id="0" />
        <mxCell id="1" parent="0" />
        <mxCell id="U1CYbbYPHP6qleJ2mfHF-2" value="网关" style="rounded=1;whiteSpace=wrap;html=1;fillColor=none;fontSize=17;" vertex="1" parent="1">
          <mxGeometry x="30" y="60" width="570" height="60" as="geometry" />
        </mxCell>
        <mxCell id="U1CYbbYPHP6qleJ2mfHF-3" value="服务注册与发现：consul" style="rounded=1;whiteSpace=wrap;html=1;fillColor=none;fontSize=17;" vertex="1" parent="1">
          <mxGeometry x="300" y="150" width="300" height="60" as="geometry" />
        </mxCell>
        <mxCell id="U1CYbbYPHP6qleJ2mfHF-4" value="API&lt;br style=&quot;font-size: 17px;&quot;&gt;&lt;br style=&quot;font-size: 17px;&quot;&gt;&lt;br style=&quot;font-size: 17px;&quot;&gt;" style="rounded=1;whiteSpace=wrap;html=1;fillColor=none;fontSize=17;" vertex="1" parent="1">
          <mxGeometry x="300" y="240" width="300" height="70" as="geometry" />
        </mxCell>
        <mxCell id="U1CYbbYPHP6qleJ2mfHF-5" value="JWT" style="rounded=1;whiteSpace=wrap;html=1;fillColor=none;fontSize=17;" vertex="1" parent="1">
          <mxGeometry x="320" y="260" width="100" height="40" as="geometry" />
        </mxCell>
        <mxCell id="U1CYbbYPHP6qleJ2mfHF-7" value="Kitex客户端" style="rounded=1;whiteSpace=wrap;html=1;fillColor=none;fontSize=17;" vertex="1" parent="1">
          <mxGeometry x="480" y="260" width="100" height="40" as="geometry" />
        </mxCell>
        <mxCell id="U1CYbbYPHP6qleJ2mfHF-8" value="Kitex服务端&lt;br style=&quot;font-size: 17px;&quot;&gt;&lt;br style=&quot;font-size: 17px;&quot;&gt;&lt;br style=&quot;font-size: 17px;&quot;&gt;&lt;br style=&quot;font-size: 17px;&quot;&gt;&lt;br style=&quot;font-size: 17px;&quot;&gt;&lt;br style=&quot;font-size: 17px;&quot;&gt;&lt;br style=&quot;font-size: 17px;&quot;&gt;&lt;br style=&quot;font-size: 17px;&quot;&gt;&lt;br style=&quot;font-size: 17px;&quot;&gt;&lt;br style=&quot;font-size: 17px;&quot;&gt;&lt;br style=&quot;font-size: 17px;&quot;&gt;" style="rounded=1;whiteSpace=wrap;html=1;fillColor=none;fontSize=17;" vertex="1" parent="1">
          <mxGeometry x="300" y="340" width="300" height="260" as="geometry" />
        </mxCell>
        <mxCell id="U1CYbbYPHP6qleJ2mfHF-9" value="User" style="rounded=1;whiteSpace=wrap;html=1;fillColor=none;fontSize=17;" vertex="1" parent="1">
          <mxGeometry x="320" y="380" width="100" height="40" as="geometry" />
        </mxCell>
        <mxCell id="U1CYbbYPHP6qleJ2mfHF-10" value="Publish" style="rounded=1;whiteSpace=wrap;html=1;fillColor=none;fontSize=17;" vertex="1" parent="1">
          <mxGeometry x="480" y="380" width="100" height="40" as="geometry" />
        </mxCell>
        <mxCell id="U1CYbbYPHP6qleJ2mfHF-11" value="Favorite" style="rounded=1;whiteSpace=wrap;html=1;fillColor=none;fontSize=17;" vertex="1" parent="1">
          <mxGeometry x="320" y="435" width="100" height="40" as="geometry" />
        </mxCell>
        <mxCell id="U1CYbbYPHP6qleJ2mfHF-13" value="Feed" style="rounded=1;whiteSpace=wrap;html=1;fillColor=none;fontSize=17;" vertex="1" parent="1">
          <mxGeometry x="480" y="435" width="100" height="40" as="geometry" />
        </mxCell>
        <mxCell id="U1CYbbYPHP6qleJ2mfHF-14" value="Relation" style="rounded=1;whiteSpace=wrap;html=1;fillColor=none;fontSize=17;" vertex="1" parent="1">
          <mxGeometry x="320" y="490" width="100" height="40" as="geometry" />
        </mxCell>
        <mxCell id="U1CYbbYPHP6qleJ2mfHF-15" value="Message" style="rounded=1;whiteSpace=wrap;html=1;fillColor=none;fontSize=17;" vertex="1" parent="1">
          <mxGeometry x="480" y="490" width="100" height="40" as="geometry" />
        </mxCell>
        <mxCell id="U1CYbbYPHP6qleJ2mfHF-16" value="Comment" style="rounded=1;whiteSpace=wrap;html=1;fillColor=none;fontSize=17;" vertex="1" parent="1">
          <mxGeometry x="400" y="540" width="100" height="40" as="geometry" />
        </mxCell>
        <mxCell id="U1CYbbYPHP6qleJ2mfHF-17" value="Jaeger" style="rounded=1;whiteSpace=wrap;html=1;fillColor=none;fontSize=17;" vertex="1" parent="1">
          <mxGeometry x="120" y="150" width="60" height="450" as="geometry" />
        </mxCell>
        <mxCell id="U1CYbbYPHP6qleJ2mfHF-18" value="Consul" style="rounded=1;whiteSpace=wrap;html=1;fillColor=none;fontSize=17;" vertex="1" parent="1">
          <mxGeometry x="210" y="150" width="60" height="450" as="geometry" />
        </mxCell>
        <mxCell id="U1CYbbYPHP6qleJ2mfHF-19" value="Rabbit&lt;br&gt;MQ" style="rounded=1;whiteSpace=wrap;html=1;fillColor=none;fontSize=17;" vertex="1" parent="1">
          <mxGeometry x="30" y="150" width="60" height="450" as="geometry" />
        </mxCell>
      </root>
    </mxGraphModel>
  </diagram>
</mxfile>
